solid  Processed by ADMesh version 0.98.4
  facet normal  7.24164478E-04  3.31307878E-04 -9.99999702E-01
    outer loop
      vertex  1.03599625E-02  2.64033824E-02  1.54628651E-04
      vertex  1.04486225E-02  2.58330489E-03  1.46801074E-04
      vertex -1.03871841E-02  2.53418321E-03  1.31696244E-04
    endloop
  endfacet
  facet normal -9.99989808E-01 -5.85726404E-04 -4.47173929E-03
    outer loop
      vertex -1.03871841E-02  2.53418321E-03  1.31696244E-04
      vertex -1.04794530E-02  1.61015615E-02  1.89881660E-02
      vertex -1.04012657E-02  2.63094101E-02  1.66509752E-04
    endloop
  endfacet
  facet normal -9.99950171E-01  9.90874134E-03  1.22005795E-03
    outer loop
      vertex -1.04012657E-02  2.63094101E-02  1.66509752E-04
      vertex -1.04794530E-02  1.61015615E-02  1.89881660E-02
      vertex -1.03888502E-02  2.52202693E-02  1.91876199E-02
    endloop
  endfacet
  facet normal  2.40302715E-03 -9.97479558E-01 -7.09136799E-02
    outer loop
      vertex  1.04486225E-02  2.58330489E-03  1.46801074E-04
      vertex -8.73039570E-03 -2.35252082E-05  3.61648463E-02
      vertex -1.03871841E-02  2.53418321E-03  1.31696244E-04
    endloop
  endfacet
  facet normal  6.68202993E-04  9.53556418E-01  3.01213682E-01
    outer loop
      vertex  1.04004703E-02  2.52534095E-02  1.90365892E-02
      vertex -1.03888502E-02  2.52202693E-02  1.91876199E-02
      vertex  5.83982607E-03  1.42742936E-02  5.38034514E-02
    endloop
  endfacet
  facet normal -5.78898937E-04  1.46393175E-03 -9.99998748E-01
    outer loop
      vertex -1.03871841E-02  2.53418321E-03  1.31696244E-04
      vertex -1.04012657E-02  2.63094101E-02  1.66509752E-04
      vertex  1.03599625E-02  2.64033824E-02  1.54628651E-04
    endloop
  endfacet
  facet normal  9.98344064E-01  5.89130353E-03  5.72229102E-02
    outer loop
      vertex  8.61607585E-03  1.39887156E-02  5.13279140E-02
      vertex  1.04948189E-02  1.51026426E-02  1.84355900E-02
      vertex  1.04004703E-02  2.52534095E-02  1.90365892E-02
    endloop
  endfacet
  facet normal  9.98185098E-01 -5.08381873E-02  3.22792195E-02
    outer loop
      vertex  1.04948189E-02  1.51026426E-02  1.84355900E-02
      vertex  8.69277399E-03 -1.32642730E-04  5.01662269E-02
      vertex  1.04486225E-02  2.58330489E-03  1.46801074E-04
    endloop
  endfacet
  facet normal  9.98371065E-01  7.29347579E-04  5.70496358E-02
    outer loop
      vertex  8.61607585E-03  1.39887156E-02  5.13279140E-02
      vertex  8.69277399E-03 -1.32642730E-04  5.01662269E-02
      vertex  1.04948189E-02  1.51026426E-02  1.84355900E-02
    endloop
  endfacet
  facet normal -8.71286094E-01 -4.90747631E-01  5.22706378E-03
    outer loop
      vertex -8.62293597E-03 -5.68019350E-05  5.09528220E-02
      vertex -1.03871841E-02  2.53418321E-03  1.31696244E-04
      vertex -8.73039570E-03 -2.35252082E-05  3.61648463E-02
    endloop
  endfacet
  facet normal  3.62711959E-02 -9.97940183E-01 -5.29127754E-02
    outer loop
      vertex  1.04486225E-02  2.58330489E-03  1.46801074E-04
      vertex  8.69277399E-03 -1.32642730E-04  5.01662269E-02
      vertex -8.73039570E-03 -2.35252082E-05  3.61648463E-02
    endloop
  endfacet
  facet normal -3.72284581E-03 -9.99988079E-01 -3.16057680E-03
    outer loop
      vertex  8.69277399E-03 -1.32642730E-04  5.01662269E-02
      vertex -5.48141683E-03 -9.11207608E-05  5.37247099E-02
      vertex -8.73039570E-03 -2.35252082E-05  3.61648463E-02
    endloop
  endfacet
  facet normal  9.99908686E-01  9.84231848E-03 -9.26313270E-03
    outer loop
      vertex  1.04004703E-02  2.52534095E-02  1.90365892E-02
      vertex  1.04948189E-02  1.51026426E-02  1.84355900E-02
      vertex  1.04486225E-02  2.58330489E-03  1.46801074E-04
    endloop
  endfacet
  facet normal  9.99991238E-01  3.72267002E-03 -1.91857992E-03
    outer loop
      vertex  1.04004703E-02  2.52534095E-02  1.90365892E-02
      vertex  1.04486225E-02  2.58330489E-03  1.46801074E-04
      vertex  1.03599625E-02  2.64033824E-02  1.54628651E-04
    endloop
  endfacet
  facet normal -1.14949641E-03  9.98149753E-01  6.07930385E-02
    outer loop
      vertex  1.04004703E-02  2.52534095E-02  1.90365892E-02
      vertex  1.03599625E-02  2.64033824E-02  1.54628651E-04
      vertex -1.03888502E-02  2.52202693E-02  1.91876199E-02
    endloop
  endfacet
  facet normal  2.84568360E-03  9.53845501E-01  3.00284237E-01
    outer loop
      vertex -1.03888502E-02  2.52202693E-02  1.91876199E-02
      vertex -5.27791958E-03  1.42931119E-02  5.38490340E-02
      vertex  5.83982607E-03  1.42742936E-02  5.38034514E-02
    endloop
  endfacet
  facet normal -2.18924046E-01  9.20873404E-01  3.22590262E-01
    outer loop
      vertex -7.77837960E-03  1.42182121E-02  5.23659214E-02
      vertex -5.27791958E-03  1.42931119E-02  5.38490340E-02
      vertex -1.03888502E-02  2.52202693E-02  1.91876199E-02
    endloop
  endfacet
  facet normal -6.61425233E-01 -3.50313261E-02  7.49192536E-01
    outer loop
      vertex -8.62293597E-03 -5.68019350E-05  5.09528220E-02
      vertex -5.48141683E-03 -9.11207608E-05  5.37247099E-02
      vertex -7.77837960E-03  1.42182121E-02  5.23659214E-02
    endloop
  endfacet
  facet normal -9.98168707E-01 -5.13121933E-02  3.20352614E-02
    outer loop
      vertex -1.03871841E-02  2.53418321E-03  1.31696244E-04
      vertex -8.62293597E-03 -5.68019350E-05  5.09528220E-02
      vertex -1.04794530E-02  1.61015615E-02  1.89881660E-02
    endloop
  endfacet
  facet normal  3.77717555E-01  8.67562950E-01  3.23518157E-01
    outer loop
      vertex  1.04004703E-02  2.52534095E-02  1.90365892E-02
      vertex  5.83982607E-03  1.42742936E-02  5.38034514E-02
      vertex  8.61607585E-03  1.39887156E-02  5.13279140E-02
    endloop
  endfacet
  facet normal -4.48617246E-03  9.98354495E-01  5.71682863E-02
    outer loop
      vertex  1.03599625E-02  2.64033824E-02  1.54628651E-04
      vertex -1.04012657E-02  2.63094101E-02  1.66509752E-04
      vertex -1.03888502E-02  2.52202693E-02  1.91876199E-02
    endloop
  endfacet
  facet normal -9.98588860E-01  8.77628755E-03  5.23756780E-02
    outer loop
      vertex -1.04794530E-02  1.61015615E-02  1.89881660E-02
      vertex -8.84117465E-03  1.39175802E-02  5.05893566E-02
      vertex -1.03888502E-02  2.52202693E-02  1.91876199E-02
    endloop
  endfacet
  facet normal -6.65951252E-01  6.90850675E-01  2.81485915E-01
    outer loop
      vertex -8.84117465E-03  1.39175802E-02  5.05893566E-02
      vertex -7.77837960E-03  1.42182121E-02  5.23659214E-02
      vertex -1.03888502E-02  2.52202693E-02  1.91876199E-02
    endloop
  endfacet
  facet normal  1.27505949E-02 -1.55288354E-02  9.99798119E-01
    outer loop
      vertex  5.83982607E-03  1.42742936E-02  5.38034514E-02
      vertex -5.48141683E-03 -9.11207608E-05  5.37247099E-02
      vertex  6.13801833E-03 -2.06026452E-05  5.35776205E-02
    endloop
  endfacet
  facet normal  4.08507418E-03 -8.70047603E-03  9.99953806E-01
    outer loop
      vertex -5.27791958E-03  1.42931119E-02  5.38490340E-02
      vertex -5.48141683E-03 -9.11207608E-05  5.37247099E-02
      vertex  5.83982607E-03  1.42742936E-02  5.38034514E-02
    endloop
  endfacet
  facet normal  6.54200092E-03 -9.99266982E-01  3.77180688E-02
    outer loop
      vertex  8.69277399E-03 -1.32642730E-04  5.01662269E-02
      vertex  6.13801833E-03 -2.06026452E-05  5.35776205E-02
      vertex -5.48141683E-03 -9.11207608E-05  5.37247099E-02
    endloop
  endfacet
  facet normal  7.98906028E-01 -4.50006612E-02  5.99770010E-01
    outer loop
      vertex  6.13801833E-03 -2.06026452E-05  5.35776205E-02
      vertex  8.69277399E-03 -1.32642730E-04  5.01662269E-02
      vertex  8.61607585E-03  1.39887156E-02  5.13279140E-02
    endloop
  endfacet
  facet normal -8.99608340E-03 -9.99957144E-01 -2.18478730E-03
    outer loop
      vertex -5.48141683E-03 -9.11207608E-05  5.37247099E-02
      vertex -8.62293597E-03 -5.68019350E-05  5.09528220E-02
      vertex -8.73039570E-03 -2.35252082E-05  3.61648463E-02
    endloop
  endfacet
  facet normal -5.10143399E-01 -2.16701985E-04  8.60089362E-01
    outer loop
      vertex -7.77837960E-03  1.42182121E-02  5.23659214E-02
      vertex -5.48141683E-03 -9.11207608E-05  5.37247099E-02
      vertex -5.27791958E-03  1.42931119E-02  5.38490340E-02
    endloop
  endfacet
  facet normal -9.98607635E-01 -1.42744593E-02  5.07836007E-02
    outer loop
      vertex -8.62293597E-03 -5.68019350E-05  5.09528220E-02
      vertex -8.84117465E-03  1.39175802E-02  5.05893566E-02
      vertex -1.04794530E-02  1.61015615E-02  1.89881660E-02
    endloop
  endfacet
  facet normal  6.65647030E-01  2.09595263E-03  7.46263742E-01
    outer loop
      vertex  6.13801833E-03 -2.06026452E-05  5.35776205E-02
      vertex  8.61607585E-03  1.39887156E-02  5.13279140E-02
      vertex  5.83982607E-03  1.42742936E-02  5.38034514E-02
    endloop
  endfacet
  facet normal -8.58158529E-01 -4.90726707E-05  5.13384759E-01
    outer loop
      vertex -7.77837960E-03  1.42182121E-02  5.23659214E-02
      vertex -8.84117465E-03  1.39175802E-02  5.05893566E-02
      vertex -8.62293597E-03 -5.68019350E-05  5.09528220E-02
    endloop
  endfacet
endsolid  Processed by ADMesh version 0.98.4
